<svg version="1" xmlns="http://www.w3.org/2000/svg" width="840" height="840" viewBox="0 0 8400 8400">
  <path d="M4005 7353c-27-1-131-7-230-13-426-25-637-54-801-111-49-17-109-36-134-43-126-36-1036-450-1302-592-136-73-445-276-580-381-107-84-181-140-276-212-222-166-381-430-467-776-56-222-67-321-72-635-5-315 6-434 67-700 107-469 340-931 683-1352 199-245 346-376 645-578 335-228 435-318 537-486 151-249 227-344 347-435 128-96 244-147 420-186 67-14 127-18 313-18 202 1 243 3 335 24 226 49 454 170 576 305l59 65 69-44c223-144 723-238 1011-191 237 39 497 166 669 326 103 97 203 256 221 353 9 45 16 51 90 67 138 29 337 135 402 215 80 97 122 211 123 332 0 49 1 52 43 77 61 37 82 57 116 111 55 86 34 197-46 246-30 19-33 25-33 72 0 29-4 67-10 86-8 30-6 38 20 68 16 18 37 47 45 63 9 17 17 30 20 30 2 0 28-9 56-20 125-50 315-70 478-51 423 50 753 312 842 670 30 120 23 323-14 428-36 102-137 308-191 392-85 132-201 234-298 263-33 10-38 15-34 32 21 73 29 308 18 533-21 416-70 649-190 888-171 344-500 624-962 820-391 166-1129 317-1740 355-147 9-694 11-825 3z" fill="#010000"/>
  <g fill="#b21401">
    <path d="M3775 7179c-561-34-751-77-1160-259-126-56-304-133-395-170-372-153-595-258-837-396-266-151-563-364-678-486-200-213-333-504-396-868-25-148-36-537-20-730 29-356 170-793 371-1152 234-417 535-754 913-1019 56-40 153-109 216-153 204-144 283-230 469-506 183-271 320-380 561-444 286-77 604-51 881 72 248 109 419 350 420 590v52h-294c-307 0-422 9-622 50-152 31-318 86-439 145-130 64-195 112-247 180-37 48-98 187-98 221 0 25 45-19 78-76 87-152 170-217 392-304 220-87 442-126 760-133 404-9 677 35 888 144 147 77 226 163 283 307 43 109 42 113-41 71-76-38-313-119-485-165-196-53-332-71-520-72-240 0-391 32-594 128-215 101-423 278-586 498-68 93-76 99-109 86-40-15-184-51-246-61-30-5-140-9-245-10-211 0-298 13-454 70-218 80-414 231-536 416-100 151-135 260-135 425 0 185 48 320 146 409 57 52 174 115 235 128 31 6 33 5 21-10-8-9-44-33-80-54-175-97-262-247-262-449 0-240 111-424 370-614 316-232 669-280 1125-155 228 63 350 129 426 229 49 65 64 121 64 241 0 117-13 156-61 185-30 17-33 23-24 40 25 47 99 8 132-69 42-98 32-261-23-386-11-24-17-49-14-57 8-18 235-168 310-206 236-116 608-161 900-108 179 32 319 76 573 180 226 93 279 97 345 29 43-43 52-77 37-131-15-56-58-90-212-166-73-35-164-86-203-111-238-157-352-186-715-186-304 0-444 22-745 117-169 54-272 109-443 238-145 109-154 114-182 104-17-5-30-13-30-16 0-18 126-164 218-253 207-200 384-309 606-373 102-30 285-56 389-56 168 1 416 54 722 155 252 83 301 109 422 227 70 68 106 96 117 92 30-12 16-46-49-117-46-49-64-75-59-86 4-9 9-26 11-38 7-31-64-234-103-296-18-29-30-55-26-59 4-3 71-24 149-47 558-159 1133-158 1404 1 57 34 133 107 155 150 25 48 44 126 44 182 0 48 0 48-27 41-361-92-795-76-1067 40-67 29-162 93-208 143-48 51-104 139-95 149 4 3 34-24 68-61 108-116 243-191 420-234 147-36 250-45 473-39 192 4 219 7 301 31 116 35 271 108 313 148 52 52 41 95-32 127-27 11-33 9-82-24-70-49-171-90-274-112-68-14-128-18-300-17-241 0-330 14-475 74-194 82-379 286-361 402 15 103 19 118 27 124 5 3 29-11 52-30 117-95 280-121 752-120 445 2 589 23 650 96 34 40 32 53-16 98-36 33-50 39-120 50-43 7-84 19-90 26-17 20 163 19 220-1 50-17 54-6 14 51-15 21-46 68-70 104-23 36-50 76-59 89-21 29-120 77-193 92-36 7-107 10-196 6-160-6-211-18-425-102-178-69-262-95-310-95-33 0-41-5-59-33-25-41-59-73-68-64-3 4 1 24 9 44 9 21 41 98 72 172 69 166 103 224 186 314 109 118 210 169 333 169 71 0 97-12 97-43 0-14-11-19-57-23-148-16-243-63-337-166-71-80-191-299-173-317 4-3 64 21 134 55 279 132 361 154 578 154 161-1 263-16 336-51 23-12 44-21 45-21 2 0 6 20 10 45 6 42 19 64 30 52 3-2 9-30 14-61 22-137 174-330 312-395 206-97 434-93 670 11 253 112 406 273 464 488 54 198-15 510-160 728-80 120-165 182-250 182-49 0-62-9-99-67-15-24-34-43-42-43-20 0-20-3 20 120 54 169 68 402 45 765-17 266-51 444-117 609-220 554-763 898-1723 1090-246 49-635 99-905 116-187 12-837 11-1040-1zm999-1669c242-18 435-70 652-175 123-60 175-97 161-111-4-4-66 20-139 54-74 33-182 73-243 88-109 29-114 29-390 29-292-1-370-8-600-51-399-76-645-169-897-338-69-46-4 61 87 146 130 120 312 203 597 273 176 43 365 75 503 85 61 4 115 8 120 8 6 1 72-3 149-8zm1071-620c506-68 1018-347 1241-676l58-84h60c136 0 256-39 290-92 22-36-6-40-87-13-58 19-95 25-164 25-160 0-264-38-407-149-107-83-116-83-61 4 20 30 38 61 41 69 6 14-98 59-392 166-655 241-1148 260-2198 84-549-91-1002-192-1251-278-192-66-566-224-579-244-3-5 1-12 9-16 8-3 15-14 15-25 0-24-44-49-145-81-96-31-328-39-428-16-164 39-317 159-334 262-8 51 15 43 66-22 45-57 149-134 182-134 11 0 29 20 49 58 111 209 367 451 665 629 587 353 1205 506 2185 542 298 12 1080 6 1185-9zM4012 3814c127-40 314-140 413-221 119-97 235-240 235-290 0-37-33-28-74 21-32 39-46 47-133 75-163 51-305 77-483 87-194 11-395-27-670-127-74-27-141-49-150-49-29 1 52 58 169 119 237 122 429 166 686 158 124-4 166-9 239-31 49-15 96-25 105-24 20 4-187 142-294 196-140 70-216 85-295 57-67-24-68 0-2 35 55 29 151 26 254-6zm2573-474c27-22 2-34-47-22-24 6-56 14-71 17-16 3-25 10-21 16 9 15 118 7 139-11zm-3449-153c156-129 436-191 869-192h220l149 43c166 47 216 52 216 24 0-15-31-28-157-70-226-74-236-75-483-69-362 9-558 50-732 152-82 48-183 139-173 155 7 12 49-8 91-43z"/>
    <path d="M4845 4819c-442-16-796-43-1085-84-81-12-343-66-435-89-494-129-969-393-1290-720-84-85-215-247-215-266 0-11 115-30 186-30 59 0 162 20 219 42 17 6 59 28 95 49 67 38 318 165 380 192 19 8 55 24 80 34 172 76 703 218 1055 283 410 75 721 125 930 149 50 6 131 15 181 21 50 5 218 10 375 10 274 0 406-9 574-41 33-6 80-15 105-19 86-16 138-30 245-65 59-19 112-35 116-35 5 0 28-8 52-19 23-10 83-35 132-56 50-20 141-63 202-96l113-59 46 28 45 29-63 40c-415 267-805 412-1244 463-116 13-572 13-706 0-535-53-830-105-1233-221-172-48-524-164-710-233-318-118-610-222-720-257-38-12-91-32-116-45-44-22-99-75-99-95 0-12-27-12-35 1-11 17 22 77 66 119 50 48 138 92 289 146 58 20 220 80 360 132 140 53 291 108 335 123 221 76 416 141 465 154 30 8 102 29 160 46 388 113 825 188 1290 221 309 22 781-3 970-51 19-5 58-14 85-21 225-52 455-152 662-285 95-61 99-64 220-147 80-56 132-72 148-47 9 15-86 140-158 206-198 183-456 319-802 422-264 79-565 95-1270 71zM2845 2989c-22-22-72-62-112-88l-72-47 32-19c18-11 82-55 142-99 156-112 314-183 550-246 81-22 357-71 363-65 2 2-10 21-26 44-41 57-58 122-44 169 6 20 8 39 4 43-4 3-43 11-87 18-131 20-312 75-406 122-32 16-111 69-176 119-66 49-122 90-124 90-3 0-23-18-44-41zM5247 2993c-20-19 12-139 41-157 6-4 19 13 30 37 11 25 25 48 31 51 21 13 11 26-39 51-55 28-54 28-63 18zM4893 2949c-18-5-33-13-33-18s25-19 55-31c67-27 77-42 59-87-18-42-3-44 37-4 37 37 38 79 3 120-28 33-58 38-121 20zM5374 2886c-50-50-48-93 9-141 58-50 177-123 245-151 78-31 371-77 360-56-45 86-50 107-46 171 3 40 14 83 27 108 11 23 21 44 21 46s-75 7-167 10c-100 4-212 14-278 26-60 12-116 21-123 21-8 0-29-15-48-34zM6585 2898c-16-6-31-12-33-13-1-1 4-15 13-31 21-41 19-130-5-182-17-38-17-41-2-33 49 26 92 102 92 161 0 34-23 112-32 109-2 0-16-5-33-11zM4714 2870c-33-15-116-47-185-70-68-23-125-43-126-44-2-1 7-20 18-42 26-49 21-131-11-193-12-24-19-45-17-47 10-10 144 61 254 134 124 83 199 125 246 136 25 6 26 8 12 22-19 19-19 28 0 44 8 7 15 17 15 22 0 8-124 69-138 67-4 0-34-13-68-29zM6222 2784c-31-21-28-57 7-86 24-21 36-24 72-19 41 6 44 8 45 36 1 45-5 54-43 70-44 19-53 19-81-1zM6352 2658c-45-28-42-68 6-82 45-13 78 4 87 44 13 59-31 77-93 38zM4045 2646c-11-9-28-16-37-16-24 0-31-16-24-56 9-43 52-69 101-60 40 8 51 20 60 66 5 28 2 39-12 52-28 25-65 31-88 14zM6112 2608c-36-36 5-77 70-69 56 8 62 33 16 61-37 23-68 26-86 8zM4220 2564c-31-29-40-43-40-69 0-46 24-68 64-59 43 9 58 24 53 51-3 16 2 27 13 33 44 23 29 80-20 80-20 0-43-12-70-36zM3790 2560c-23-23-15-56 24-105 24-29 26-29 53-15 33 18 53 54 45 82-3 12-23 28-49 39-54 23-49 23-73-1zM4675 1916c-109-75-206-117-369-158l-123-31-11-126c-6-69-18-143-26-163-9-21-16-42-16-47 0-6 26-27 58-47 147-95 365-178 546-209 103-18 369-20 466-4 185 30 412 144 554 278 103 98 189 239 198 322l3 34-240 6c-395 10-718 74-886 175-31 19-58 34-60 33-2 0-44-29-94-63z"/>
  </g>
  <g fill="#ff72d3">
    <path d="M3905 7184c-27-2-129-8-225-14-484-30-666-73-1065-250-132-59-348-151-480-206-283-116-632-287-835-409-225-135-498-335-588-430-191-202-314-454-387-795-58-268-58-786 0-1060 114-541 355-1026 723-1452 169-195 326-332 591-515 373-258 378-263 671-683 127-183 245-281 408-340 200-73 400-95 605-66 273 39 463 122 607 265 116 115 190 282 190 427v52l-352 4c-350 5-354 5-513 37-339 69-603 183-719 312-43 48-99 163-113 230-5 29-4 30 14 21 11-6 40-44 63-84 80-135 126-177 276-251 271-136 596-193 1029-184 331 7 534 46 724 140 94 47 204 141 245 211 26 44 76 173 76 195 0 6-32-5-70-24-78-39-314-120-485-165-200-54-333-72-520-72-246-1-397 33-610 137-206 100-408 270-552 465-39 53-77 101-84 107-11 9-38 5-114-17-142-42-222-51-423-52-197-1-282 11-432 64-232 82-427 231-555 422-101 153-135 257-135 417 1 264 84 413 284 508 90 43 123 53 131 41 3-5-31-30-75-56-114-65-182-131-224-215-47-93-60-163-53-279 11-179 65-297 197-431 196-199 430-325 668-359 133-20 363-8 505 24 148 34 335 98 407 139 68 38 149 119 174 171 36 76 44 266 13 333-5 12-25 32-44 43-29 17-32 23-23 40 26 48 106 3 137-78 28-72 25-237-6-317-13-33-24-76-25-95-1-33 4-37 104-107 178-123 296-176 475-213 383-80 711-36 1170 155 237 99 283 106 353 55 77-55 79-155 5-220-20-18-86-56-147-85-61-28-165-86-231-127-135-85-169-103-229-124-187-67-595-78-892-24-104 19-249 57-379 101-125 43-241 108-393 223-145 109-154 114-182 104-17-5-30-13-30-16 0-13 87-117 170-205 241-255 491-398 791-453 114-21 349-24 462-5 187 30 607 157 754 227 55 26 98 59 178 135 92 87 107 98 125 89 11-6 20-15 20-20 0-6-30-42-66-82-65-71-65-72-59-117 5-37-1-67-29-149-18-56-48-126-66-155-17-29-30-56-30-62 3-14 232-81 375-110 398-79 758-83 1010-10 124 36 195 77 265 152 49 52 63 76 80 132 24 78 24 157 0 155-8-1-78-14-155-29-119-23-168-27-325-28-200-1-305 10-446 48-162 44-279 109-364 202-51 55-96 130-86 140 3 3 40-30 83-74 118-120 235-181 447-231 105-25 124-26 376-26 260 0 267 1 355 28 116 35 260 103 308 146 31 27 37 39 35 64s-12 35-46 55l-43 23-54-36c-255-176-808-189-1115-25-85 45-182 129-232 201-59 83-72 119-64 171 15 102 19 117 27 123 5 3 36-15 68-39 113-85 288-112 721-111 295 1 475 13 569 40 58 16 121 68 121 99 0 9-19 34-41 55-33 31-52 40-93 45-73 9-126 24-126 35 0 16 182 12 229-5 31-10 41-11 41-2 0 10-76 129-156 246-21 29-120 77-193 92-36 7-107 10-196 6-160-6-211-18-425-102-179-69-262-95-311-95-32 0-41-5-53-27-17-34-64-79-72-70-8 7-3 20 74 205 79 189 111 240 212 342 93 94 163 135 253 150 87 14 166-6 167-43 0-13-49-27-98-27-144 0-291-110-402-301-49-82-85-167-77-175 3-4 64 21 134 54 282 133 370 157 583 155 156-1 259-17 331-52 23-12 44-21 45-21 2 0 6 20 9 43 7 45 20 75 29 66 3-2 9-32 15-66 23-147 170-333 317-403 111-54 212-73 339-67 130 6 223 31 354 92 228 108 384 278 437 475 24 93 23 251-4 363-75 306-252 547-403 547-52 0-65-8-102-67-15-24-34-43-42-43-19 0-19 5 6 76 64 186 81 407 60 774-21 351-60 530-160 735-201 411-577 686-1201 879-335 103-668 164-1210 222-136 14-947 28-1085 18zm1053-1695c160-28 314-79 480-161 131-63 165-88 148-105-3-3-61 19-128 50-221 101-351 127-628 127-261 0-443-20-707-76-355-76-570-159-778-301-83-57-67 1 27 98 158 164 414 270 858 353 258 49 505 54 728 15zm757-589c182-12 326-40 505-100 393-131 697-337 865-584l57-83 101-6c116-7 161-18 207-50 44-29 58-53 43-68-9-9-25-7-70 10-172 66-412 23-563-101-71-57-109-82-116-75-3 3 13 35 36 72 24 36 40 68 37 71-11 11-362 145-509 194-273 92-463 131-728 151-409 31-980-28-1764-181-630-123-832-183-1271-374-148-65-164-75-141-88 9-5 16-18 16-28 0-23-45-48-145-80-96-31-328-39-429-16-169 40-336 177-336 276 0 36 28 21 76-40 46-59 119-113 168-126 22-5 28 0 49 43 44 84 125 191 230 299 157 164 347 298 622 440 561 291 1107 412 2000 443 309 11 899 12 1060 1zM4015 3812c201-62 453-225 564-366 55-69 81-116 81-145 0-40-23-34-69 17-49 55-80 69-246 111-159 40-267 54-420 55-214 1-361-29-623-125-74-27-141-49-150-49-60 2 249 172 394 218 151 48 210 56 409 56 179 1 196-1 289-27 54-16 100-26 103-24 13 14-200 151-328 212-127 60-195 67-293 29-31-12-14 18 23 40 69 40 132 40 266-2zm2554-465c13-6 22-16 20-22-4-11-22-11-84 0-58 10-67 14-60 25 9 14 95 12 124-3zm-3421-166c200-136 419-183 847-185l230-1 145 42c161 48 220 54 220 25 0-15-34-30-177-77l-178-59-165-4c-385-9-666 42-859 156-79 48-176 135-167 151 4 6 9 11 12 11 2 0 44-27 92-59z"/>
    <path d="M2845 2989c-22-22-72-62-112-88l-72-47 32-19c18-11 81-55 142-98 122-88 186-123 314-172 159-60 399-119 540-132l64-6-26 35c-49 63-73 168-45 196 19 19 0 27-87 41s-229 51-313 81c-92 34-147 67-269 160-66 49-122 90-124 90-3 0-23-18-44-41zM5247 2993c-20-19 12-139 41-157 6-4 19 13 30 37 11 25 25 48 31 51 20 12 12 22-38 49-53 30-55 30-64 20zM4893 2949c-18-5-33-13-33-18s21-16 46-26c26-10 55-26 65-36 17-17 17-21 4-54-19-44-7-45 34-3 38 39 40 76 5 117-28 33-58 38-121 20zM5374 2886c-26-26-34-42-34-70 0-31 7-41 61-85 98-78 211-137 309-160 77-19 270-44 277-38 1 2-9 25-23 52-22 43-25 60-21 120 2 45 12 85 25 112 12 23 22 45 22 48s-47 5-104 5c-125 0-287 15-378 35s-95 20-134-19zM6585 2898c-16-6-31-12-33-13-1-1 4-15 13-31 21-41 19-130-5-182-17-38-17-41-2-33 49 26 92 102 92 161 0 34-23 112-32 109-2 0-16-5-33-11z"/>
    <path d="M4715 2871c-33-15-116-47-185-71s-126-44-128-46c-2-1 6-17 17-35 29-48 27-120-4-188-14-30-24-55-23-57 10-10 151 64 253 133 126 84 201 126 248 137 25 6 26 8 12 22-19 19-19 28 0 44 8 7 15 17 15 22 0 8-124 69-138 67-4 0-34-13-67-28zM6222 2784c-31-21-28-57 7-86 24-21 36-24 72-19 41 6 44 8 45 36 1 45-5 54-43 70-44 19-53 19-81-1zM6352 2658c-45-28-42-68 6-82 45-13 78 4 87 44 13 59-31 77-93 38zM4031 2640c-49-28-54-35-46-69 9-40 54-65 100-57 40 8 51 20 60 66 5 28 2 39-12 52-29 26-65 29-102 8zM6113 2609c-19-19-16-46 7-62 27-19 104-8 108 15 6 33-90 72-115 47zM4219 2561c-28-28-39-47-39-69 0-43 25-65 64-56 43 9 58 24 53 51-3 16 2 27 13 33 44 24 29 80-22 80-22 0-41-11-69-39zM3790 2560c-22-22-17-49 21-101 24-34 38-36 73-8 48 37 32 88-37 117-36 15-33 16-57-8zM4705 1934c-107-82-295-160-466-194l-57-11-7-107c-6-94-21-173-40-223-11-28 176-136 335-193 162-59 264-78 445-83 94-3 208-1 255 5 196 25 433 139 584 281 103 98 189 239 198 322l3 34-250 6c-205 5-277 11-401 33-257 44-369 78-475 142-31 19-58 34-60 34s-31-21-64-46z"/>
  </g>
  <g fill="#fff">
    <path d="M2845 2989c-22-22-72-62-112-88l-72-47 32-19c18-11 82-55 142-98 148-107 283-171 490-230 98-28 288-66 374-74l54-6-26 35c-49 63-73 168-45 196 20 20 0 27-117 46-60 10-119 22-130 27-11 4-57 19-101 33-123 37-177 66-314 170-69 53-127 96-130 96s-24-18-45-41zM5374 2886c-26-26-34-43-34-69 0-30 8-41 61-85 84-69 197-131 277-153 62-17 302-53 308-46 2 2-8 25-22 52-22 43-25 60-21 121 2 47 11 86 25 113 12 23 22 44 22 46 0 3-47 5-104 5-125 0-287 15-378 35s-95 20-134-19zM6584 2896c-30-11-30-12-18-41 20-45 17-133-6-183-18-40-18-42-1-32 58 31 97 119 85 195-9 63-21 76-60 61zM4715 2871c-33-15-116-47-185-71s-126-44-128-46c-2-1 6-17 17-35 29-48 27-120-4-188-14-30-24-55-23-57 10-10 152 65 258 136 141 95 179 116 233 131 34 9 36 11 22 25-19 19-19 19 1 49l16 25-67 30c-37 16-70 30-73 29-4 0-34-13-67-28zM6222 2784c-31-22-28-57 9-88 22-19 35-23 47-17 9 4 23 6 30 4 21-8 43 18 39 46-4 27-57 71-86 71-9 0-27-7-39-16zM6352 2658c-45-28-42-68 6-82 45-13 78 4 87 44 13 59-31 77-93 38zM4031 2640c-49-28-54-35-46-69 9-40 54-65 100-57 40 8 51 20 60 66 5 28 2 39-12 52-29 26-65 29-102 8zM6113 2609c-19-19-16-46 7-62 27-19 104-8 108 15 6 33-90 72-115 47zM4219 2561c-27-27-39-47-39-67 0-45 14-58 56-56 48 4 67 19 61 49-3 16 2 27 13 33 44 24 29 80-22 80-22 0-41-11-69-39zM3790 2560c-22-22-17-49 21-101 24-34 38-36 73-8 48 37 32 88-37 117-36 15-33 16-57-8z"/>
  </g>
</svg>
