<svg xmlns="http://www.w3.org/2000/svg" width="745" height="745">
  <path stroke="#000" stroke-linecap="square" stroke-width="80" d="M576.175 212.343l-179.642 311.15M347.175 221.343l-179.642 311.15M372 124v506"/>
  <path fill="#000" d="M678.28 152.038a375.117 375.117 0 0114.333 21.4l-32.658 63.636c4.141 8.849 7.852 17.85 11.134 26.97l68.097 21.91a377.68 377.68 0 015.008 25.302l-54.62 46.368c.438 9.652.438 19.32 0 28.97l54.62 46.369a377.68 377.68 0 01-5.008 25.3l-68.097 21.911a316.484 316.484 0 01-11.134 26.971l32.658 63.636a375.118 375.118 0 01-14.332 21.4l-71.21-5.814a323.858 323.858 0 01-20.697 20.76l5.807 71.154a375.118 375.118 0 01-21.4 14.332l-63.255-32.462a316.458 316.458 0 01-27.516 11.45l-21.746 67.585a377.68 377.68 0 01-25.301 5.008l-45.823-53.971a320.485 320.485 0 01-30.12.064l-45.764 53.907a377.68 377.68 0 01-25.301-5.008l-21.56-67.011a316.497 316.497 0 01-28.379-11.677l-62.578 32.115a375.118 375.118 0 01-21.4-14.332l5.713-69.952a323.777 323.777 0 01-21.92-21.854l-69.893 5.706a375.118 375.118 0 01-14.332-21.4l31.92-62.2A316.47 316.47 0 0171.53 479.66L5.033 458.263a377.68 377.68 0 01-5.008-25.3l53.26-45.217a320.484 320.484 0 010-31.272L.024 311.256a377.68 377.68 0 015.008-25.301L71.53 264.56a316.47 316.47 0 0111.995-28.923l-31.92-62.2a375.117 375.117 0 0114.332-21.399l69.893 5.706a323.874 323.874 0 0121.92-21.854l-5.713-69.952a375.118 375.118 0 0121.4-14.332l62.58 32.114a316.496 316.496 0 0128.378-11.676l21.56-67.011a377.679 377.679 0 0125.3-5.008l45.765 53.907c10.034-.45 20.086-.43 30.12.064L432.962.025a377.679 377.679 0 0125.3 5.008l21.746 67.585a316.458 316.458 0 0127.516 11.45l63.256-32.462a375.118 375.118 0 0121.4 14.332l-5.807 71.154a323.956 323.956 0 0120.698 20.76l71.209-5.814zm-159.446 72.64c-81.424-81.425-213.439-81.425-294.863 0-81.425 81.424-81.425 213.439 0 294.863 81.424 81.425 213.439 81.425 294.863 0 81.425-81.424 81.425-213.439 0-294.863z"/>
</svg>